<svg width="31568" height="6082" viewBox="0 0 31568 6082" fill="none" xmlns="http://www.w3.org/2000/svg">
<path id="Pfad 1" d="M30392.1 921.186C30407.4 917.257 30422.5 911.291 30437.9 907.653C30699.1 850.955 30964.9 831.223 31229.9 848.864L31506.4 590.259V53.8193H25112.8V590.155H30752.9L30392.1 921.186Z" fill="#1B1A1A"/>
<path id="Pfad 2" d="M2663.73 0C664.365 0 0.34375 53.675 0.34375 53.675V5989.96C0.34375 5989.96 664.365 6043.8 2663.73 6043.8C4864.56 6043.8 6953.42 5256.93 6953.42 3012.89C6953.42 831.526 4924.18 0 2663.73 0ZM2663.73 5507.26C1529.73 5507.26 835.96 5489.51 440.555 5471.61V572.34C835.96 554.441 1529.73 536.542 2663.73 536.542C5110.73 536.542 6490.85 1457.25 6490.85 3012.87C6490.85 4595.35 5118.1 5507.24 2663.71 5507.24" fill="#1B1A1A"/>
<path id="Pfad 3" d="M30451.3 4473.11C30083.8 4582.98 29738.8 4789.09 29412.6 5002.69C29085.7 5214.44 28761.8 5409.02 28415.5 5516.41C28070.3 5627.44 27709.8 5653.8 27349.4 5651.53C26988.7 5637.27 26632.5 5584.3 26298.1 5454.92C25962.5 5327.28 25656.1 5121.52 25338.4 4889.83C25021.3 4658 24671.7 4425.16 24290.8 4290.26C23911 4150.11 23516.9 4106.31 23130.5 4099.9C22744.1 4103.4 22349.3 4151.42 21967.8 4287.93C21584.7 4420.08 21231.6 4652.33 20915.4 4881.83C20597.6 5109.58 20291.1 5307.22 19956.8 5421.89C19623.8 5541.06 19271.6 5576.74 18913.3 5589.4C17501.3 5606.13 16089.4 5630.29 14677.3 5672.55L12552.3 3576.19C14163.9 3469.09 14917.2 2959.42 14917.2 1814.99C14917.2 438.171 13955 0.122559 11881 0.122559C9299.73 0.122559 8046.36 53.8184 8046.36 53.8184V5990.11H8486.45V3621.05C9053.45 3621.05 10180 3612.03 11881 3603.15H11903.3L14327.9 5990.11H14400.5L14401.8 5991.56L14451.1 5992.87C15938.5 6040.02 17426 6064.18 18913.4 6081.93C19297.7 6082.95 19692.8 6040.75 20075.1 5909.91C20458.6 5782.56 20813.8 5555.26 21134.3 5328.96C21455.7 5103.1 21760.5 4902.8 22092.9 4783.09C22423.8 4661.41 22775.2 4613.83 23131.8 4606.99C23488.2 4609.9 23841 4649.19 24176.1 4760.09C24512.5 4869.23 24823.8 5062.94 25144.9 5285.31C25465 5508.55 25817.4 5733.69 26197.7 5856.07C26576.6 5983.42 26966.6 6021.83 27348.9 6019.07C27731.3 6005.83 28117.7 5947.04 28486.6 5804.7C28857.1 5666.15 29193.4 5432.72 29504.6 5190.12C29816.3 4948.98 30130.7 4725.29 30479.6 4587.26C30827.2 4448.27 31195.4 4380.9 31567 4352.67C31195.8 4336.95 30817.6 4356.82 30451.3 4473.01L30451.3 4473.11ZM11873.5 3066.71C10172.5 3084.46 9053.45 3084.46 8486.47 3084.46V572.338C9046.04 563.482 10165.2 536.457 11881 536.457C13910.1 536.457 14462.2 921.039 14462.2 1814.93C14462.2 2646.33 13872.9 3048.73 11873.5 3066.63" fill="#0E0E0E"/>
<path id="Pfad 4" d="M25090.4 5563.7V5990.11H25786.9C25556.7 5871.52 25333.1 5735.16 25117.6 5581.89C25108.3 5575.49 25099.5 5569.96 25090.4 5563.7Z" fill="#1B1A1A"/>
<path id="Pfad 5" d="M29477.3 5486.72C29237.8 5673.3 28983.4 5853.45 28710.2 5990.11H31409.4V5453.77H29521C29506.6 5465.12 29491.9 5475.6 29477.3 5486.81" fill="#1B1A1A"/>
<path id="Pfad 6" d="M23526.6 5990.11H23966.7V5102.81C23821.3 5068.23 23674.4 5043.94 23526.6 5030.05V5990.11Z" fill="#1B1A1A"/>
<path id="Pfad 7" d="M30465.7 3642.44C30101.9 3745.17 29758 3942.66 29434.6 4150.04C29112.5 4361.65 28796.4 4555.91 28457.7 4664.2C28118.1 4773.04 27767.2 4823.43 27415.7 4813.87C27062.4 4803.48 26710.9 4761.34 26379.8 4649.13C26047.3 4538.16 25743.8 4345.76 25434.2 4120.5C25126.4 3895.8 24789.4 3656.7 24416.3 3509.33C24047.7 3362.87 23662.5 3285.93 23274.2 3281.28C22892.9 3276.19 22506.9 3299.99 22127 3420.27C21746.9 3531.89 21387 3740.41 21070.3 3971.54C20751.3 4201.27 20455.3 4424.22 20132.2 4567.26C19810.6 4712.51 19465.3 4782.84 19112.9 4807.78L16922.8 4891.75C16190.6 4935.25 15458.4 4960.72 14726.1 5019.97C16193.6 5117.9 17648.7 5198.25 19126 5215.71C19503.8 5211.92 19892.7 5154.15 20260.7 4998.87C20630.2 4849.19 20963.5 4611.46 21276.5 4400.75C21589.4 4186.24 21896.5 4009.56 22230.5 3916.14C22561.1 3814.13 22914.4 3796.67 23262.9 3803.88C23608.4 3803.26 23951.8 3867.29 24280.8 3993.65C24607.1 4116.03 24905.3 4327.93 25227.3 4547.83C25547.4 4767 25902.2 4978.74 26280.2 5090.5C26657.5 5207.93 27042.4 5231.67 27420.1 5220.61C27797.1 5207.08 28180.6 5139.12 28542.9 4989.87C28906.5 4842 29236.2 4607.11 29542.1 4370.05C29847.2 4130.65 30155.5 3911.62 30498 3774.84C30839 3637.45 31201.3 3571.67 31566.9 3537.04C31201.3 3515.65 30828.5 3533.55 30465.7 3642.4" fill="#1B1A1A"/>
<path id="Pfad 8" d="M21212.6 2331.2C20970.8 2510.21 20744.4 2697.49 20506.2 2852.99C20036.9 3182.13 19492.1 3328.23 18935.9 3388.78C19489.5 3444.91 20074.2 3366.66 20600.3 3083.9C21126.3 2805.92 21580.7 2422.01 22095 2278.38C22601.5 2117.42 23153.1 2114.36 23675.5 2194.85C24205.2 2265.87 24669.6 2523.6 25140.9 2872.88C25615.1 3218.51 26188.6 3533.95 26775.6 3590.64C26920.2 3611.6 27065.9 3621.46 27211.6 3620.18C27356.7 3629.2 27501.3 3612.9 27646 3604.46C27790.2 3598.93 27935.5 3563.28 28079.4 3541.45C28222 3498.09 28366.7 3469.42 28504.7 3406.83C28780.9 3298.84 29044.7 3149.61 29289.9 2962.67C29531.7 2783.51 29758.1 2596.52 29996.4 2440.88C30465.9 2112.26 31010.8 1965.93 31567 1905.84C31013.4 1850.1 30428.8 1928.25 29903 2211.3C29376.9 2489.26 28922.3 2873.11 28408.1 3016.94C27901.5 3178.05 27349.6 3180.67 26827.2 3100.62C26297.7 3028.59 25832.9 2772.02 25361.9 2422.15C24888 2075.8 24314.2 1761.09 23727.5 1703.38C23582.7 1682.42 23437 1672.48 23291.2 1673.63C23146.3 1664.9 23001.5 1681.05 22856.9 1689.49C22712.7 1694.73 22567.4 1731.07 22423.4 1752.07C22280.8 1795.43 22136.1 1824.24 21998 1886.98C21721.7 1995 21457.9 2144.22 21212.7 2331.14" fill="#1B1A1A"/>
<path id="Pfad 9" d="M30555.5 2794.14C30220.4 2876.64 29896.1 3035.13 29594.8 3222.58C29294.2 3411.75 29008.7 3610.72 28706.2 3741.54C28405.6 3875.18 28090.1 3954.49 27770.1 3976.86C27125.3 4016 26469.6 3941.52 25904.9 3606.04C25619.6 3442.75 25344 3226.78 25038.8 3024.66C24735.1 2821.93 24395.3 2656.48 24046 2568.71C23749.8 2495.88 23447.9 2462.79 23145.7 2470.05V2467.87C22033.7 2467.87 21472.7 2855.13 20930 3237.42C20415.1 3600.07 19928.9 3942.95 18935.7 3942.95H16530V3084.4H18428.9C19451 3084.4 19988.2 2832.64 20360.3 2557.01H16530V590.092H22304.4V53.8193H16089.8V4465.98H18935.9C20047.8 4465.98 20608.8 4070.57 21151.5 3688.51C21647.3 3339.26 22121.4 3008.3 23042.2 2983.99C23190.3 2982.39 23338.8 2991.42 23486.9 2995.64C23643.9 3019.5 23803.1 3033.91 23954.9 3080.04C24262.7 3154.25 24552.4 3289.75 24836.1 3473.99C25120.6 3654.45 25407.1 3882.79 25732.5 4054.65C26057.8 4227.78 26403.5 4339.37 26757.4 4385.43C27107.5 4440 27455.1 4422.97 27801.7 4381.79C28151.4 4337.9 28493.2 4228.38 28814.5 4057.27C29134.9 3885.68 29420.2 3655.31 29700.4 3444.16C29978.5 3227.96 30268.6 3045.4 30584.4 2927.68C30900.5 2813.34 31231.8 2757.84 31566.9 2721.61C31231.7 2701.82 30891.1 2709.38 30555.5 2794.22" fill="#1B1A1A"/>
<path id="Pfad 10" d="M25140.6 2057.18C25681.8 2438.33 26241.6 2828.42 27347.5 2830.37H27349.3C27351.8 2830.37 27354.1 2830.66 27356.6 2830.66V2830.23C27445.5 2830.81 27534.2 2828.33 27622.9 2822.8C27987.7 2794.86 28360.1 2721.23 28709.1 2558.96C29057.2 2393.63 29369.5 2160.35 29657.1 1931.57C29948 1707.46 30235.3 1502.4 30556.7 1368.82C30875.6 1226.92 31217.6 1155.76 31567.1 1090.13C31212.1 1035.52 30852.2 1045.92 30499.9 1120.98C30142.8 1202.76 29798.8 1378.86 29486.8 1578.09C29170.6 1771.07 28880.2 1974.96 28567.5 2093.64C28258.7 2222.15 27932.4 2283.27 27599.7 2300.73C27518.3 2306.99 27437.3 2310.63 27356.5 2311.64C26363.3 2311.64 25876.9 1969.08 25361.9 1606.11C24973.8 1332.81 24573.8 1051.86 23966.8 914.47V53.6738H23526.6V1371.87C23563 1371.87 23630.8 1382.5 23630.8 1382.5C24313.3 1474.32 24715 1757.24 25140.6 2057.18Z" fill="#1B1A1A"/>
</svg>
