<?xml version="1.0"?>
<svg xmlns="http://www.w3.org/2000/svg" width="512" height="512" viewBox="0 0 128 128"><g><path d="M78.5,56.5h-29a1.751,1.751,0,0,0-1.75,1.75V96.239a1.75,1.75,0,0,0,1.75,1.75h29a1.75,1.75,0,0,0,1.75-1.75V58.253A1.751,1.751,0,0,0,78.5,56.5Zm-1.75,37.986h-25.5V60h25.5Z"/><path d="M78.5,104.5h-29a1.751,1.751,0,0,0-1.75,1.75v10A1.751,1.751,0,0,0,49.5,118h29a1.751,1.751,0,0,0,1.75-1.75v-10A1.751,1.751,0,0,0,78.5,104.5Zm-1.75,10h-25.5V108h25.5Z"/><path d="M84.5,0h-41a5.757,5.757,0,0,0-5.75,5.75v112.5A9.761,9.761,0,0,0,47.5,128h33a9.761,9.761,0,0,0,9.75-9.75V5.747A5.757,5.757,0,0,0,84.5,0ZM41.249,5.747A2.252,2.252,0,0,1,43.5,3.5h41a2.252,2.252,0,0,1,2.25,2.25V46.5H83v-12a1.751,1.751,0,0,0-1.75-1.75H76.564v-13a9.761,9.761,0,0,0-9.75-9.75H49.626a1.751,1.751,0,0,0-1.75,1.75v7a1.748,1.748,0,0,0,.849,1.5l4.917,2.951A3.238,3.238,0,0,1,55.061,27L53.2,32.753H46.75A1.751,1.751,0,0,0,45,34.5v12H41.249ZM55.443,20.208l-4.067-2.441V13.505H66.814a6.257,6.257,0,0,1,6.25,6.25v13H56.874l1.516-4.675A6.72,6.72,0,0,0,55.443,20.208Zm-.976,16.045H79.5V46.5h-31V36.253Zm32.284,81.994a6.257,6.257,0,0,1-6.25,6.25h-33a6.257,6.257,0,0,1-6.25-6.25V50h45.5Z"/></g></svg>
